<svg width="30" height="31" viewBox="0 0 30 31" fill="none" xmlns="http://www.w3.org/2000/svg">
<rect y="0.5" width="30" height="30" rx="11.25" fill="#35383E" fill-opacity="0.1"/>
<path fill-rule="evenodd" clip-rule="evenodd" d="M13.125 17.375L20.625 9.875L22.5 11.75L15 19.25L13.125 17.375ZM11.25 19.25L13.125 17.375L9.375 13.625L7.5 15.5L11.25 19.25Z" fill="white"/>
<path fill-rule="evenodd" clip-rule="evenodd" d="M13.125 17.375L20.625 9.875L22.5 11.75L15 19.25L13.125 17.375ZM11.25 19.25L13.125 17.375L9.375 13.625L7.5 15.5L11.25 19.25Z" fill="#35383E" fill-opacity="0.25"/>
<path d="M11.25 19.25L13.125 21.125L15 19.25L13.125 17.375L11.25 19.25Z" fill="white"/>
<path d="M11.25 19.25L13.125 21.125L15 19.25L13.125 17.375L11.25 19.25Z" fill="#35383E" fill-opacity="0.25"/>
</svg>
